<?xml version="1.0" encoding="UTF-8"?>
<svg xmlns="http://www.w3.org/2000/svg" id="main-logo" version="1.1" viewBox="0 0 1366 768">
  <defs>
    <style>

      .cls-2 {
        fill: #60bc63;
      }

      .cls-3 {
        fill: #5072b7;
      }

      .cls-4 {
        fill: #c6e0a2;
      }

      .cls-5 {
        fill: #94cc84;
      }

      .cls-6 {
        fill: #84a6d6;
      }
    </style>
  </defs>
  <!-- Generator: Adobe Illustrator 28.6.0, SVG Export Plug-In . SVG Version: 1.2.0 Build 709)  -->
  <g>
    <g id="Layer_1">
      <g>
		<path class="cls-6" d="M588.5,719.4c-3.2,0-6.4,0-9.6,0-19.8,0-19.6,0-16.7-20.4,7.8-56.5,31.7-105.3,71.1-146.4,7.6-7.9,2-10.7-2.8-14.8-33.2-27.9-59.7-61.1-79.8-99.5-4.3-8.2-3.8-13.3,3.9-19.1,11.5-8.6,22.2-18.3,33-27.9,4.7-4.2,6.3-2.6,7.9,2.6,13.6,44.7,43,77.8,77.6,107.3,8.1,6.9,13.5,6.6,21.4-.2,34.2-29.9,64.1-62.6,77.1-107.6,1.7-5.8,4.4-5.3,8.5-1.7,11.4,10,23,19.9,34.7,29.6,4.7,3.9,5.8,7.5,2.9,13.4-18.5,37.4-43,70.2-74.7,97.4-14.5,12.4-15.3,12.5-3.1,26.6,31.1,35.8,51.9,76.6,61.8,123,1,4.7,1.7,9.4,2.2,14.2,2.4,23.6,2.4,23.6-20.8,23.5-10,0-21.7,2.7-29.5-1.6-8.7-4.8-4.7-18.3-6.9-27.8-8.7-37.6-26.2-70.3-52.3-98.5-10.5-11.4-10.8-11.4-21.1-.6-29.6,31.4-48.7,68.1-55,111.1q-2.6,17.4-20.2,17.4c-3.2,0-6.4,0-9.6,0ZM723.9,545.5c-.5-.8-1.2-2.3-2.3-3.4-9.6-10.3-20.2-19.4-31.6-27.4-5-3.5-10.1-2.5-14.5.9-9.5,7.3-18.7,14.9-28,22.4-6.2,5-6,9.7.5,14.5,9.9,7.3,19.8,14.9,29.5,22.6,4.7,3.7,8.5,3,12.8-.6,9.5-7.9,19.3-15.5,29.1-23,1.9-1.5,4.2-2.4,4.5-5.9Z"/>
        <path class="cls-5" d="M772.7,62.1c.3,48.7-19.3,72.1-64.3,81.1-7.6,1.5-11.7,0-15.4-7-18.6-35.4-10.6-70.1,21.8-93,12.8-9.1,26.5-16.3,41.2-21.8,7.2-2.7,10.9-1.5,12.5,6.8,2.3,12.2,4.6,24.3,4.2,33.9Z"/>
        <path class="cls-5" d="M982.4,168.7c12-.6,25.3,2.1,38.7,4.6,6.8,1.3,7.6,4.9,5.6,10.2-8.8,23.5-20.7,44.9-40.7,61.1-22.8,18.4-56.6,12.9-79.2.4-6.3-3.5-4-9.1-3.2-13.9,7.3-42.3,32.6-62.7,78.8-62.5Z"/>
        <path class="cls-5" d="M357.5,339.9c-24,.2-41-11-56.8-24.3-7.6-6.4-14.2-14.1-21.3-21.2-3-3-5.9-6.1-.5-9.6,21.3-13.8,43.3-25.6,69.5-27.1,29.4-1.7,53,19.5,66.2,45.7,2.1,4.2,0,7.1-2.5,9.6-15.8,15.5-33.1,28-54.7,27Z"/>
        <path class="cls-4" d="M348.6,455.5c-33.8-.8-55.3-12-76.4-24.7-4.6-2.7-5.3-6-2-9.7,22.6-25.2,44.6-51.3,83.5-48.2,20.9,1.7,36.1,13.8,50.4,27.5,2.4,2.3,2.4,4.7.9,7.6-11.7,23.5-32.9,48.9-56.5,47.5Z"/>
        <path class="cls-4" d="M642.9,293c-3,.9-4.9,2.8-4.7,6.1.4,6.3-2.6,11.7-5,17.1-12.6,28.7-13.7,29.8-43.5,13.8-33.3-17.8-42.1-45-32.4-86.2,1.8-7.8,4.3-15.4,6.8-23,5-15,5.1-15,19.5-6.9,11.2,6.3,21.1,14.3,31.1,22.4,2,1.6,4,2.5,6.5,2.5,0,2.3,0,4.7,0,7,0,16.7,2.3,32.3,19.2,41.2.8,2,1.7,4,2.5,5.9Z"/>
        <path class="cls-4" d="M882.3,332.3c28.4,10.3,45.8,32.4,60.6,57.1,2.2,3.6,5.4,8.2-1.1,10.9-22.6,9.3-45.4,18.2-70.5,14.7-28.3-3.9-45.1-22.1-55-47.5-2.3-5.9-4.9-11.9-5-18.4,3.1.8,6.3,1.7,9.4,2.5,22,1.3,43.5,1.2,58.4-19.2,1.1,0,2.2,0,3.3,0Z"/>
        <path class="cls-4" d="M570.5,80.6c5.5-.5,6.3-4.9,8.2-9,13.1-27.8,37.8-42.3,63.9-55,3.9-1.9,6.2.1,7.4,3.5,9.3,26.8,15.2,54.2,5.4,81.8-9.4,26.5-32.2,37.2-57.8,43-.6,0-1.2-.2-1.7-.4,4.7-27.3-3.5-48.5-22.8-59.3-.9-1.5-1.7-3.1-2.6-4.6Z"/>
        <path class="cls-5" d="M570.5,80.6c.9,1.5,1.7,3.1,2.6,4.6-1.4,18.9,3.6,36.2,13.1,52.4,2.3,3.9,4,8,9.7,7,.6.2,1.1.3,1.7.4-3.4,9-7,17.8-10.1,26.9-2.8,8.2-7.7,9.4-15.8,7.4-54.8-13-65.9-46.2-60-94.8.9-7.9,3.3-15.6,5-23.4,1.3-6.2,4-9.2,10.8-6,15.2,7.2,30.6,13.8,43.1,25.5Z"/>
        <path class="cls-5" d="M1037.1,341.9c28.7,11.8,43.9,36.1,57,62.1,2.6,5.1-1,7.5-5.1,8.8-24.5,7.9-49.2,14.4-75.2,8-24.9-6.1-46.7-33.8-48.6-62.1,7.8,1.2,15.6,3.9,23.6,2.3,15.8-3.2,31.8-6.3,41.4-21.6,2.3.8,4.6,1.7,7,2.5Z"/>
        <path class="cls-4" d="M1041.6,331.5c-2.3-.8-9.2,8.8-11.5,7.9-25.3-6.9-46,3.5-65.8,17.3-12.2-3.4-22-10.8-31.8-18.6-5.9-4.7-5.8-8.2-3-14.1,22.4-47.1,57.9-56.9,106.7-37.6,6.7,2.6,12.8,6.6,19.5,9.4,9.1,3.8,10.7,8.5,3.5,16-6.1,6.3-11.5,13.3-17.5,19.8-2.8,3-1-4.6,0,0Z"/>
        <path class="cls-5" d="M520.8,363.7c6.6,11.1.4,17.8-7.6,24.8-33.2,28.7-69.8,26.6-107.2-6.6-2.7-2.4-5.2-4.9-7.8-7.5q-17.3-17.1,4.1-29.5c14.2-8.2,29-15.2,45.5-17.6,1.6,0,3.1,0,4.7,0,.2,3.2.9,6,2.8,8.8,15,22.7,36.6,29.8,62.5,27.5,1,0,2,0,3,.1Z"/>
        <path class="cls-5" d="M871.3,471.8q-4.8-26.2,21.4-35.5c28.8-10.1,56-2.2,77,22.8,10.1,12,17.5,25.6,24.4,39.6,3.7,7.5,1.4,10.5-6.1,12.7-16.6,4.7-33.7,6.3-50.8,7.4-1.1-.4-2.3-.9-3.4-1.3-5.5-25.2-31.2-44.9-59.6-45.7-1,0-1.9,0-2.9,0Z"/>
        <path class="cls-5" d="M433.1,517.1c-14.8-3.4-28.8-9-42.4-15.7-5-2.5-6.5-5.3-3.1-10.2,14.2-21,29.9-40.3,53.8-51.3,27-12.5,58.1.7,76.4,16.6,3.6,3.1,3,7.3,1.4,11.1-2.9,6.9-6.2,13.6-9.4,20.4-1.1,0-2.3,0-3.4.1-20.4-6.2-38.5-1.2-54.4,11.9-5.9,4.9-16,7.6-13.3,18.9-1.8-.6-3.7-1.2-5.5-1.7Z"/>
        <path class="cls-4" d="M871.3,471.8c1,0,1.9,0,2.9,0,5,27.3,29.1,45.7,59.6,45.7,1.1.5,2.3.9,3.4,1.3,2.4,14.5,8.5,28.2,8.6,43.2,0,5.1-.7,8.5-6.9,8.5-23.7,0-46.5-2.6-68.3-13.4-27-13.4-36.6-53.4-30.6-76.6,1.1-4.2,3.8-5.5,7.6-6.2,7.8-1.4,15.6-3,23.7-2.5Z"/>
        <path class="cls-4" d="M520.8,363.7c-1,0-2,0-3-.1-8.9-24.4-41.2-42.4-65.3-36.3-1.6,0-3.1,0-4.7,0-3.3-16.3-10.5-31.6-13.2-48.2-1.5-9.3.7-11.9,10-12,23.5-.4,46.4,1.8,67.4,13.3,27.2,14.8,34.9,47.9,31.9,74.8-.4,3.7-3,5.4-6.5,6-5.5.9-11,1.7-16.5,2.6Z"/>
        <path class="cls-4" d="M506.3,486.3c1.1,0,2.3,0,3.4-.1,7.3,3.2,14.6,6.3,21.9,9.7,5.2,2.3,8.8,6,7.3,12.2-5.3,21.8-13.5,42-34.1,54.1-17.5,10.3-36.9,9.3-56,7.6-10.6-.9-21-4.4-31.5-6.7-6.8-1.5-8.3-4.9-4.7-11.1,7-12.1,13.6-24.4,20.4-36.5,1.8.6,3.7,1.2,5.5,1.7,7.1.1,14.2.6,21.3.4,20.2-.8,41.2-15.1,46.4-31.1Z"/>
        <path class="cls-6" d="M642.8,423.1c-.1-22.2,9-36.1,24.7-42.8,16.5-7.1,31.4-3.6,44.2,8.2,14.2,13,15.2,29.3,9,46.3-4.9,13.3-13.1,24.6-24.8,33.1-7.3,5.3-15.2,6.2-22.4,1.5-18.5-12-28.6-29.5-30.7-46.2Z"/>
        <path class="cls-4" d="M789.5,341.8c-18.1,6.9-20.2,5.6-26.8-11.6-15.7-41.2,3.5-74,36.7-90.6,10.7-5.3,21.1-11.5,32.7-14.8,7.8-2.2,12.2-.1,12.7,8.8.5,10.3,3.3,20.5,2.5,30.9,0,.9,0,1.8,0,2.6-37-1.5-62.4,45.3-57.7,74.6Z"/>
        <path class="cls-5" d="M845.5,186.4c-13.3,14.9-31.5,17.3-49.7,19.5-4.1.5-5.3-2.8-6.7-5.7-20.2-38.7-8.9-77.7,29.2-99.6,8.6-4.9,17.6-9.3,26.7-13.3,17.5-7.7,17.5-7.5,21.4,11.8,0,.8-.2,1.7-.3,2.5-23.8,5.5-34.8,23-41.3,44.5-7.9,26.1-6,29.9,18.7,38.9.7.3,1.4.8,2.1,1.2Z"/>
        <path class="cls-4" d="M686,200.3c13.8-9.6,28.6-17.5,43.9-24.3,11.5-5.1,14.1-3.2,16.5,9.2,3.4,18,5.3,35.8,2.8,54.4-4.4,32.3-34.2,54.7-63.7,55.6,22-29.4,24.7-59.4,3-90.2-.8-1.6-1.6-3.1-2.4-4.7Z"/>
        <path class="cls-4" d="M866.1,101.8c0-.8.2-1.7.3-2.5,21.2-4.3,42.3-6.9,64-3.1,7.8,1.4,9.7,4.8,7.9,11.1-7.4,25.5-16.5,50.3-38.4,67.5-13.5,10.6-28.7,14.6-45.6,8.6-1.1-7.7,6-11.7,8.4-18,7.9-21,7.4-42.1,3.4-63.6Z"/>
        <path class="cls-5" d="M430.7,159.1c1.9-8.2,3.9-16.3,5.7-24.5,1.2-5.6,4.1-7.1,9.5-5,23.9,9.3,45.6,22.1,60.7,43.1,18.1,25.2,11.5,53.1-1.7,78.1-2,3.7-5.1,4.8-9,4.2-13.1-1.8-25.7-5.3-35.9-14.4,7.4-4.6,15-9,22.2-13.9,4.9-3.3,7.7-7.8,6.4-14.3-5.2-24.9-30-48.4-56.2-53-.6-.2-1.2-.3-1.8-.4Z"/>
        <path class="cls-4" d="M455.7,239.9c-32.4,9.9-56.7-3.9-77.2-27.2-7.8-8.9-13.6-19.6-20.7-29.1-4.2-5.6-2.7-7.8,3.3-10.3,22.3-9.4,45.1-15.9,69.6-14.2.6,0,1.2.2,1.7.4-7.7,31.3-2.3,58.7,23.2,80.4Z"/>
        <path class="cls-5" d="M686,200.3c.8,1.6,1.6,3.1,2.4,4.7-6.2-1.1-9.4,3.2-12.8,7.1-20.6,24.1-15.2,56.1-4,79.3,2.1,4.3,5.6,5.2,9.8,5-12,15.1-14.1,15.4-29.4,4.1-3.2-2.3-6.1-5-9.1-7.5-.8-2-1.7-4-2.5-6-.4-16.5-4.2-31.4-19.2-41.2,0-2.3,0-4.7,0-7,2.5-25.2,15.1-45.9,29.3-65.9,4-5.6,7.9-3.1,10.9.1,7.6,8.1,14.8,16.7,22.1,25.2.8.7,1.5,1.4,2.3,2.1,0,0,.2.1.2.1Z"/>
        <path class="cls-5" d="M847.2,267.2c0-.9,0,.9,0,0,35.3-4.1,38.2-3.1,57,1.9,8.2,2.2,9.2,5.4,6.8,12.5-6.4,18.7-17.5,34.7-28.6,50.7-1.1,0-2.2,0-3.3,0-14-5.3-27.2-1.2-39.9,4.1-7.4,3-17.4,3.9-18.5,15.2-3.1-.8-6.3-1.7-9.4-2.5-4.3-1.5-9.5-1.2-12.3-5.8,3-7,10.7-6,15.9-9.2,25.1-15.5,33.6-38.8,32.4-66.9Z"/>
        <path class="cls-2" d="M455.7,239.9c-25.6-21.7-30.9-49.1-23.2-80.4,26.2,4.6,51,28.2,56.2,53,1.4,6.5-1.4,11-6.4,14.3-7.3,4.9-14.8,9.3-22.2,13.9-1.5-.3-2.9-.6-4.4-.8Z"/>
        <path class="cls-2" d="M681.4,296.4c-4.2.2-7.7-.7-9.8-5-11.3-23.2-16.6-55.2,4-79.3,3.3-3.9,6.6-8.2,12.8-7.1,21.7,30.8,19,60.8-3,90.2-1.3.4-2.6.7-3.9,1.1Z"/>
        <path class="cls-2" d="M866.1,101.8c4,21.5,4.5,42.6-3.4,63.6-2.4,6.3-9.5,10.3-8.4,18-2.9,1-5.8,2-8.8,3.1-.7-.4-1.3-.9-2.1-1.2-24.7-9-26.6-12.9-18.7-38.9,6.5-21.5,17.5-39,41.3-44.5Z"/>
        <path class="cls-2" d="M847.2,267.2c1.3,28.1-7.2,51.4-32.4,66.9-5.2,3.2-12.9,2.2-15.9,9.2-3.1-.5-6.3-1-9.4-1.5-4.7-29.3,20.7-76.1,57.7-74.6Z"/>
        <path class="cls-2" d="M964.2,356.7c19.8-13.8,40.6-24.2,65.8-17.3-9.6,15.2-25.6,18.4-41.4,21.6-7.9,1.6-15.7-1.2-23.6-2.3-.4-.6-.7-1.3-.9-2Z"/>
        <path class="cls-4" d="M685.8,200.2c-.8-.7-1.5-1.4-2.3-2.1.8.7,1.5,1.4,2.3,2.1Z"/>
        <path class="cls-3" d="M723.9,545.5c-.3,3.5-2.6,4.5-4.5,5.9-9.8,7.6-19.5,15.2-29.1,23-4.4,3.6-8.2,4.3-12.8.6-9.7-7.7-19.5-15.2-29.5-22.6-6.5-4.8-6.7-9.5-.5-14.5,9.3-7.5,18.5-15.1,28-22.4,4.4-3.4,9.5-4.5,14.5-.9,11.4,8.1,22.1,17.2,31.6,27.4,1,1.1,1.7,2.5,2.3,3.4Z"/>
        <path class="cls-2" d="M621.2,245.8c15,9.7,18.8,24.7,19.2,41.2-16.8-8.9-19.1-24.5-19.2-41.2Z"/>
        <path class="cls-2" d="M820.7,351.6c1.1-11.2,11.1-12.1,18.5-15.2,12.7-5.2,25.9-9.3,39.9-4.1-14.8,20.4-36.4,20.5-58.4,19.2Z"/>
        <path class="cls-2" d="M595.9,144.5c-5.7,1.1-7.4-3.1-9.7-7-9.6-16.2-14.5-33.5-13.1-52.4,19.3,10.8,27.5,32,22.8,59.3Z"/>
        <path class="cls-2" d="M452.4,327.3c24.1-6,56.4,12,65.3,36.3-25.9,2.3-47.5-4.8-62.5-27.5-1.9-2.8-2.6-5.7-2.8-8.8Z"/>
        <path class="cls-2" d="M933.9,517.5c-30.5,0-54.6-18.5-59.6-45.7,28.4.8,54.1,20.5,59.6,45.7Z"/>
        <path class="cls-2" d="M508.9,486.3c-3.3,16.5-26.9,31.1-50.5,31.1-7.1,0-14.2-.2-21.3-.4-2.8-11.3,10.1-15,16-19.9,15.9-13,35.4-17.1,55.8-10.9Z"/>
      </g>
    </g>
  </g>
</svg>